<svg id="Layer_1" data-name="Layer 1" xmlns="http://www.w3.org/2000/svg" viewBox="0 0 787.96 239">
    <title>Untitled-2</title>
    <path id="Fill-1" d="M810,187.43c-4.37-.78-6.67-4.9-6.82-12.16V86.13H783.87v55.92A37.43,37.43,0,0,1,773.42,169a31.21,31.21,0,0,1-23,9.07c-18.89,0-32.58-15.79-32.58-37.18V99.33a13,13,0,0,0-12.9-13.2h-6.38v55.92a56.51,56.51,0,0,0,16.58,41,50.9,50.9,0,0,0,35.91,14.27h1.57a44.91,44.91,0,0,0,31.74-14.08,15.44,15.44,0,0,0,3.88,7.75,14.69,14.69,0,0,0,12.61,4.66,13.18,13.18,0,0,0,10.25-5.83l1.23-2Z" transform="translate(-24.36 -10)" style="fill:#0072b1" />
    <path id="Fill-3" d="M738.1,50.17a12.66,12.66,0,1,0-12.66,12.66h0A12.61,12.61,0,0,0,738.1,50.22Z" transform="translate(-24.36 -10)" style="fill:#0072b1" />
    <path id="Fill-5" d="M746.05,50.17a20.56,20.56,0,1,1-20.56-20.55A20.56,20.56,0,0,1,746.05,50.17ZM751,75.93a.49.49,0,0,1-.54.43.47.47,0,0,1-.29-.14L745.51,71a28.87,28.87,0,0,0,5.2-6Zm45.82-25.76a20.56,20.56,0,1,1-20.55-20.55h0a20.55,20.55,0,0,1,20.31,20.55Zm-54,23.69,6.48,8a2.1,2.1,0,0,0,3,.06l.06-.06,6.52-8a29.44,29.44,0,0,0,37.73-44.69l7.36-8.73a9,9,0,0,0,1.57-6.23c0-3-.4-4.9-2.65-4,0,0-35.23,15.11-52.05,15.11s-52-15.11-52-15.11c-2.31-.93-2.65,1-2.65,4a9,9,0,0,0,1.52,6.23L705,29.17a29.43,29.43,0,0,0,37.72,44.69Z" transform="translate(-24.36 -10)" style="fill:#0072b1" />
    <path id="Fill-8" d="M788.68,50.17A12.66,12.66,0,1,0,776,62.83h.05a12.61,12.61,0,0,0,12.61-12.61Z" transform="translate(-24.36 -10)" style="fill:#0072b1" />
    <path id="Fill-10" d="M260.48,179h0a35.94,35.94,0,0,1-25.56-10.59,37.37,37.37,0,0,1-10.74-26.74,37,37,0,0,1,10.69-26.15,36.53,36.53,0,0,1,25.8-10.45h.3a36.21,36.21,0,0,1,35.63,36.77c0,.22,0,.44,0,.67a35.71,35.71,0,0,1-34.66,36.73h-1.44m.59-92.67h0a55.49,55.49,0,1,0-1,111h0a55.63,55.63,0,0,0,.73-111.22" transform="translate(-24.36 -10)" style="fill:#fff" />
    <path id="Fill-12" d="M471.23,58.46H452.1V86.13h-8.69v18.64h8.69v49.45c.88,18.74,9,31.94,24,39.25a38.9,38.9,0,0,0,17.17,4h5.25V178.65h-1.61a29.21,29.21,0,0,1-8.34-.73,25.62,25.62,0,0,1-17.37-25.37V104.77h28V86.13h-28Z" transform="translate(-24.36 -10)" style="fill:#fff" />
    <path id="Fill-14" d="M175.85,90.3c-15.06,7.26-23.15,20.41-24,39.25v68H170.9V131.16a25.7,25.7,0,0,1,17.41-25.41,33.41,33.41,0,0,1,10.5-.68h3.29V87.16l-2.6-.39a39,39,0,0,0-23.65,3.53" transform="translate(-24.36 -10)" style="fill:#fff" />
    <path id="Fill-18" d="M656.37,90.1c-15.06,7.21-23.15,20.41-24,39.25v68h19.14V131a25.65,25.65,0,0,1,17.41-25.22,33.39,33.39,0,0,1,10.5-.68h3.29V87L680,86.57a39,39,0,0,0-23.65,3.53" transform="translate(-24.36 -10)" style="fill:#fff" />
    <path id="Fill-20" d="M382.73,105.16a35.54,35.54,0,0,1,28.6,14.43l.59.88H434l-1.07-2.31a55.58,55.58,0,1,0,0,48.37l1.17-2.3H411.53l-.49.59a35.65,35.65,0,0,1-28.31,14,36.8,36.8,0,0,1,0-73.59" transform="translate(-24.36 -10)" style="fill:#fff" />
    <g id="Group-24">
        <path id="Fill-22" d="M118.41,142.1a37.24,37.24,0,1,1-37.24-37.23,37.24,37.24,0,0,1,37.24,37.23h0M81.17,86.37a55.55,55.55,0,0,0-38.51,15.46H24.36V249H44V183.46a54.92,54.92,0,0,0,37.28,14.37,55.73,55.73,0,0,0,0-111.46" transform="translate(-24.36 -10)" style="fill:#fff" />
    </g>
    <path id="Fill-25" d="M599.47,141.86a37.09,37.09,0,1,1-37.14-37h0a37.15,37.15,0,0,1,37.09,37M562.38,86.13A55.63,55.63,0,1,0,618,141.86a55.62,55.62,0,0,0-55.58-55.73h0" transform="translate(-24.36 -10)" style="fill:#fff" />
</svg>
